<?xml version="1.0" encoding="utf-8"?>
<!-- Generator: Adobe Illustrator 20.1.0, SVG Export Plug-In . SVG Version: 6.00 Build 0)  -->
<svg version="1.1" id="Layer_1" xmlns="http://www.w3.org/2000/svg" xmlns:xlink="http://www.w3.org/1999/xlink" x="0px" y="0px"
	 viewBox="0 0 1680 1680" style="enable-background:new 0 0 1680 1680;" xml:space="preserve">
<style type="text/css">
	.st0{fill:#303030;}
	.st1{fill:#FFFFFF;}
</style>
<g>
	<path class="st0" d="M1341.3,8.7c56.4,16.7,67.5,58.1,67.3,111.3c-1.3,310.1-1.3,620.2,0,930.4c0.2,53.2-10.9,94.7-67.3,111.3
		c-338.2,0-676.5,0-1014.7,0c-35.4-10.7-58.5-33.8-69.2-69.2c0-338.2,0-676.5,0-1014.7c10.7-35.4,33.8-58.5,69.2-69.2
		C664.8,8.7,1003.1,8.7,1341.3,8.7z M648.4,582.3c0,76.8,0.1,153.7-0.1,230.5c-0.1,17.6,3.3,29,25.3,28.8
		c81.6-0.9,163.3-0.6,244.9-0.2c16.1,0.1,22.4-6,21.8-22c-0.8-23,1.7-46.3-0.6-69.1c-3.3-31.8,6-48.2,39-60.3
		c81-29.5,130.3-120.4,115.2-200.9c-17.4-93.1-92.9-159.1-184-159.8c-76.8-0.6-153.7,0.7-230.5-0.6c-24.4-0.4-31.7,8.6-31.4,31.7
		C649,434.4,648.4,508.3,648.4,582.3z"/>
	<path class="st1" d="M326.6,8.7c-35.4,10.7-58.5,33.8-69.2,69.2c0-23.1,0-46.1,0-69.2C280.5,8.7,303.5,8.7,326.6,8.7z"/>
	<path class="st1" d="M257.4,1092.6c10.7,35.4,33.8,58.5,69.2,69.2c-23.1,0-46.1,0-69.2,0C257.4,1138.7,257.4,1115.6,257.4,1092.6z"
		/>
	<path class="st1" d="M648.4,582.3c0-74,0.6-147.9-0.4-221.9c-0.3-23.2,7-32.2,31.4-31.7c76.8,1.3,153.7,0.1,230.5,0.6
		c91.1,0.7,166.6,66.7,184,159.8c15.1,80.5-34.2,171.4-115.2,200.9c-33,12-42.3,28.5-39,60.3c2.3,22.8-0.2,46.1,0.6,69.1
		c0.5,16-5.7,22.1-21.8,22c-81.6-0.4-163.3-0.7-244.9,0.2c-22,0.2-25.3-11.2-25.3-28.8C648.5,736,648.4,659.1,648.4,582.3z
		 M731.3,584c0,50.9,0.5,101.8-0.3,152.8c-0.3,18.7,6.7,25.8,25.4,25c27.8-1.1,55.8,1.1,83.5-1.2c7.3-0.6,18.5-12.1,19.5-19.7
		c2.7-20.8,0.9-42.1,1-63.3c0.1-56.7-4.4-51.2,50.2-53.5c60-2.5,105.9-50.1,105.1-107.8c-0.8-57.3-48.3-105.7-107.2-107.1
		c-50.9-1.2-101.8,0.3-152.7-0.6c-19.2-0.4-25.2,7.4-24.9,25.6C731.8,484.1,731.3,534.1,731.3,584z"/>
	<path class="st0" d="M731.3,584c0-50,0.4-99.9-0.2-149.9c-0.2-18.1,5.7-25.9,24.9-25.6c50.9,1,101.9-0.6,152.7,0.6
		c58.8,1.4,106.4,49.8,107.2,107.1c0.8,57.7-45.1,105.3-105.1,107.8c-54.7,2.3-50.1-3.2-50.2,53.5c0,21.1,1.7,42.5-1,63.3
		c-1,7.6-12.2,19.1-19.5,19.7c-27.7,2.3-55.7,0.1-83.5,1.2c-18.7,0.7-25.7-6.4-25.4-25C731.8,685.9,731.3,635,731.3,584z"/>
</g>
<g>
	<path class="st0" d="M1422.6,1619.5c-12.7,32.8-37.8,48.1-71.8,49.7c-16.1,0.7-32.6,1.5-48.4-1c-48.2-7.7-44.6-1.5-40.2-56.1
		c17.5,4.5,34.7,9.8,52.2,13.3c9.6,1.9,20.2,2.8,29.7,0.8c6.8-1.4,17-7.8,17.6-12.9c0.7-6.5-4.9-17-10.9-20.5
		c-17.6-10.5-37-17.9-55.2-27.4c-19.8-10.3-33.7-24.9-35.1-49.2c-1.9-31.1,10.5-52.1,40.4-61.3c39.9-12.3,78.8-7,118.8,10.5
		c-5.7,14.1-11.2,27.5-16.7,41.1c-16.9-4.6-32.3-9.1-47.9-12.9c-5.4-1.3-11.7-2.5-16.6-0.8c-7,2.5-13.1,7.6-19.6,11.6
		c4.5,6.1,7.9,13.9,13.9,17.8c9.8,6.3,21.1,10.7,32.2,14.8c25.2,9.4,46,23.6,57.8,48.7C1422.6,1596.9,1422.6,1608.2,1422.6,1619.5z"
		/>
	<path class="st0" d="M328.9,1569c0,32.2,0,64.4,0,97.4c-20.6,0-39,0-58.7,0c0-93.3,0-185.4,0-281.8c44.2,2.2,88,1.3,130.9,7.4
		c40.4,5.7,63.1,40.2,62.5,83.6c-0.6,44.7-26.1,78.4-68,86.7C375,1566.4,353.6,1566.7,328.9,1569z M330.1,1517.5
		c25.3,1,50.6,4.3,66.6-19.8c9.6-14.5,9.6-32.3-0.9-45.9c-17-22-42-15.8-65.6-16.4C330.1,1464.2,330.1,1490.2,330.1,1517.5z"/>
	<path class="st0" d="M689.3,1574.2c-46.8,0-91.1,0-135.4,0c-0.8,35.2,21.4,55.2,57.5,52.3c11.1-0.9,22.3-3,33.2-5.5
		c10.2-2.4,20.1-6.1,33.1-10.2c0,13.3,0.6,24.8-0.3,36.2c-0.3,3.9-3.9,9.3-7.4,11c-37.3,18.2-110,18.7-144.4-11.9
		c-21.7-19.3-31.6-43.6-33.5-70.9c-4.2-60,16.9-112.5,74.3-124.1c75.4-15.3,122.9,24.9,123,101.9
		C689.3,1559.2,689.3,1565.4,689.3,1574.2z M632.7,1533.3c-2.4-30.4-16.1-43.3-42.5-42c-22.3,1.1-35.5,16.8-34.5,42
		C580.8,1533.3,606.1,1533.3,632.7,1533.3z"/>
	<path class="st0" d="M1117.9,1574.1c-46.1,0-90.3,0-134.3,0c-4.5,37.7,27.9,55.7,56.1,52.2c22-2.7,43.7-8.5,66.1-13.1
		c0.2,3.8,0.7,8.1,0.8,12.4c0.5,33.2,0.6,33.8-31.2,40.8c-32.9,7.2-66,7.4-97.4-6.4c-42.9-18.9-57-55.5-56.5-99.2
		c0.2-16,2.2-32.7,6.9-47.9c15.4-49.3,60-71.9,118.9-62.2c42.4,7,69.7,42,70.5,90.4C1118.1,1551.2,1117.9,1561.2,1117.9,1574.1z
		 M983.8,1533.1c25.9,0,51.6,0,77.4,0c0.3-25.5-12.1-40.3-33.6-41.8C1000.7,1489.6,986.6,1502.8,983.8,1533.1z"/>
	<path class="st0" d="M804.7,1519.7c12.3-19.9,23.8-36.9,33.7-54.9c5.7-10.2,12.7-13.8,24-13.2c15.5,0.8,31,0.2,51.1,0.2
		c-24.6,37.2-47.1,71.2-69.7,105.5c23.7,35.6,47.1,70.9,73,109.8c-23.1,0-43.3,0.6-63.3-0.5c-3.9-0.2-8.2-6.9-11.1-11.5
		c-12.4-19.4-24.3-39.1-37.7-60.9c-13.1,21.1-25.3,39.7-36.3,59.1c-5.9,10.4-12.8,15.4-25.3,14.4c-15.3-1.2-30.8-0.3-50.6-0.3
		c18.5-28,34.7-52.8,51.1-77.5c21.7-32.8,21.7-32.7,0.6-64.9c-15.3-23.2-30.5-46.5-48-73.2c22.7,0,41.3-0.7,59.7,0.5
		c4.8,0.3,10.6,5.9,13.7,10.6C781.4,1480.7,792.1,1499,804.7,1519.7z"/>
	<path class="st0" d="M1160.6,1369.1c20,0,37.9,0,57,0c0,99.3,0,197.6,0,297.2c-19.4,0-37.7,0-57,0
		C1160.6,1567,1160.6,1468.6,1160.6,1369.1z"/>
	<path class="st1" d="M330.1,1517.5c0-27.4,0-53.4,0-82.1c23.7,0.6,48.6-5.6,65.6,16.4c10.6,13.7,10.6,31.4,0.9,45.9
		C380.6,1521.9,355.4,1518.5,330.1,1517.5z"/>
	<path class="st1" d="M632.7,1533.3c-26.6,0-51.8,0-77.1,0c-1-25.3,12.2-41,34.5-42C616.6,1490,630.3,1502.9,632.7,1533.3z"/>
	<path class="st1" d="M983.8,1533.1c2.9-30.3,17-43.5,43.8-41.8c21.6,1.4,33.9,16.3,33.6,41.8
		C1035.4,1533.1,1009.6,1533.1,983.8,1533.1z"/>
</g>
</svg>
