<?xml version="1.0" encoding="utf-8"?>
<!-- Generator: Adobe Illustrator 20.1.0, SVG Export Plug-In . SVG Version: 6.00 Build 0)  -->
<svg version="1.1" id="Layer_1" xmlns="http://www.w3.org/2000/svg" xmlns:xlink="http://www.w3.org/1999/xlink" x="0px" y="0px"
	 viewBox="0 0 1680 1680" style="enable-background:new 0 0 1680 1680;" xml:space="preserve">
<g>
	<path style="fill:#FFFFFF;" d="M11.1,1154.5c0-287.3,0-574.6,0-862.1c260.8,0,521.6,0,782.4,0c-0.2,0.9-0.3,1.9-0.6,2.8
		c-4.8,13.7-9.6,27.5-14.4,41.2c-15,42.8-30,85.7-45,128.5c-0.5,1.5-0.9,3-1.4,4.5c4.1,0.6,55.8,0.7,60.3,0.1
		c1.8-5.7,3.7-11.4,5.6-17.2c1.9-5.8,3.7-11.6,5.6-17.3c1.9-5.8,3.7-11.6,5.5-17.4c1.9-5.9,3.8-11.9,5.7-17.8
		c1.9-5.8,3.6-11.6,5.6-17.3c1.9-5.7,3.3-11.6,5.8-17.1c0.8,0.1,1.3,0,1.7,0.2c120.3,46,240.6,92,360.8,138c0.4,0.2,0.8,0.5,1.2,0.8
		c0.1,1.9-0.9,3.4-1.5,5c-23.9,60.9-47.7,121.7-71.6,182.6c-7.2,18.5-14.5,36.9-21.8,55.3c-0.6,1.4-0.8,3.1-2.4,4.3
		c-1-0.3-2-0.6-3-1c-5.9-2.4-11.8-4.8-17.8-7.2c-15.7-6.4-31.3-12.8-47-19.2c-1.4-0.6-2.8-1.6-4.7-1.2c-0.8,3.9-0.3,7.9-0.4,11.9
		c-0.1,3.8,0,7.7,0,11.5c0,4,0,8,0,12c0,3.8-0.1,7.7,0,11.5c0.1,4-0.4,8,0.4,12.2c34.9,14,69.9,28,105.3,42.2
		c46-117.4,92-234.4,137.9-351.7c-1.1-0.6-1.9-1.1-2.8-1.4c-3.3-1.3-6.6-2.5-9.8-3.8c-151.5-57.9-303-115.8-454.4-173.7
		c-0.7-0.3-1.3-0.8-2-1.2c292.4,0,584.9,0,877.4,0c0,366,0,732,0,1098.1c-553.5,0-1107.1,0-1660.7,0c0-0.2,0-0.5,0-0.8
		c15.4,0,30.7,0,46.1,0c1.4,0,2.8-0.2,4.3-0.3c0.6-2.2,0.4-4.1,0.4-6c0-29.1,0-58.2,0-87.3c0-1.4-0.1-2.9,0-4.3
		c0.1-0.9,0.3-1.8,0.6-2.9c2,0,3.7,0,5.4,0c22.4,0,44.8,0,67.2,0c9,0,17.9-0.9,26.7-2.3c14.4-2.3,27.6-7.9,40.1-15.3
		c20.7-12.4,36.4-29.6,47.4-51c9-17.5,14-36,14.1-55.7c0-5.6-0.4-11.2-1-16.7c-0.9-9.1-2.9-18-6-26.6c-17-47.4-63.2-80.4-109.1-83
		c-14.3-0.8-28.5,0.2-42.3,3.9c-37.7,10-69.7,38.7-84.2,75.3c-4.1,10.3-6.8,21-7.8,32C12.8,1151.2,12.8,1153.2,11.1,1154.5z
		 M974.6,514.8c-2.1-0.6-4.2-0.3-6.2-0.3c-113.7,0-227.5,0-341.2,0c-1.4,0-2.9-0.1-4.3,0c-2,0.1-3.7-0.4-5.3-1.7
		c-5-4.2-10.3-8.1-15.1-12.6c-3.3-3-6.1-6.6-8.8-10.1c-4-5.4-6.4-11.4-6.8-18.2c0-0.4-0.3-0.9-0.5-1.5c-1.1-0.1-2.2-0.2-3.3-0.2
		c-33.1,0-66.2,0-99.3,0c-1.1,0-2.1,0.2-3.4,0.3c-0.2,2.3-0.4,4.4-0.4,6.4c-0.2,4.5-1,8.9-2.2,13.2c-1.4,4.8-3.4,9.3-6.4,13.3
		c-4,5.3-9.2,8.9-15.7,10.3c-2.5,0.5-5.1,0.7-7.6,0.7c-7.8,0.1-15.7,0-23.5,0.1c-1.2,0-2.6-0.4-3.9,1.2c0,1.5-0.1,3.4-0.1,5.3
		c0,99.3,0,198.7,0,298c0,1.1-0.1,2.2,0,3.4c0.1,0.9,0.4,1.8,0.6,2.8c2.3,0,4.4,0,6.4,0c180.1,0,360.2,0,540.4,0
		c1.4,0,2.9,0.1,4.3,0c0.9-0.1,1.8-0.3,2.9-0.5c0-102.7,0-205.3,0-307.8C975,516.2,974.8,515.6,974.6,514.8z M877.6,937.6
		c-0.8,2.2-0.5,4.3-0.5,6.3c0,67.7,0,135.3,0,203c0,3.2,0,6.4-0.1,9.6c-0.1,6.7,0.1,13.4,0.9,20.1c3,25.1,12.3,47.4,28.4,67
		c27.4,33.4,72.5,50,115.5,43.9c16-2.3,30.9-7.9,44.8-16.1c43.3-25.5,71.4-81.2,58.4-136.8c-5.4-23.1-16.4-43-33.1-59.6
		c-24.7-24.6-54.4-37.6-89.5-37.4c-23.2,0.1-46.4,0-69.6,0c-1.9,0-3.8,0.2-5.9-0.5c-0.1-2-0.2-3.9-0.2-5.8c0-29,0-57.9,0-86.9
		c0-1.4,0.1-2.9,0-4.3c-0.1-0.9-0.3-1.8-0.5-2.6c-4.3-0.7-29.7-1-45.3-0.5C879.8,937.2,878.7,937.5,877.6,937.6z M1421.2,1037.8
		c-0.8,1.7-0.4,3.7-0.5,5.6c0,28.6,0,57.3,0,85.9c0,10.2-0.1,20.5-0.2,30.7c-0.1,8.2,0.6,16.3,2.1,24.3
		c5.9,30.5,20.4,55.9,44.5,75.7c21.9,18,47.2,27,75.5,28c14.3,0.5,28.4-1.3,42.1-5.7c12-3.8,23.1-9.3,33.3-16.7
		c1.1-0.8,2-2.2,3.8-1.8c0.6,2.2,0.3,4.4,0.1,6.6c-2.3,20.6-11.1,37.9-27,51.3c-10.6,9-22.7,14.8-36.7,16.4
		c-9.1,1.1-18.2,1.4-27.3,1.1c-2.2-0.1-4.5-0.1-6.7-0.1c-0.9,0-1.8,0.4-2.6,0.6c-0.1,0.7-0.2,1.2-0.2,1.7c0,14.9,0,29.8,0,44.6
		c0,0.8,0.3,1.5,0.5,2.4c1.4,0.1,2.7,0.2,4,0.2c8.8,0,17.6,0,26.4-0.1c10.9-0.1,21.6-2,32.1-5.3c38.9-12.4,71.2-45.6,82.7-85
		c2.6-8.8,4.1-17.7,4-26.9c-0.1-9.8,0.1-19.5,0.1-29.3c0-65.9,0-131.8,0-197.7c0-1.6,0-3.2-0.1-4.8c0-0.6-0.2-1.2-0.4-1.9
		c-0.7-0.1-1.3-0.3-1.9-0.3c-14.7,0-29.4,0-44.1,0c-0.7,0-1.5,0.3-2.5,0.6c0,2.1,0,4,0,5.9c0,29.6,0,59.2,0,88.8
		c0,10.2,0.1,20.5-0.2,30.7c-0.2,6.5-0.7,13.1-2.3,19.5c-8.7,33.8-45.8,64.5-91.1,53.8c-30.7-7.2-57.7-36.2-57.9-71.4
		c-0.1-19.8-0.3-39.7-0.3-59.5c0-21.6,0-43.2,0-64.8c0-1.1-0.2-2.1-0.3-3.1C1465.7,1037.2,1425.5,1037.1,1421.2,1037.8z
		 M1396.9,1287.6c1.4-2,0.9-4,0.9-5.8c0-28.8,0-57.6,0-86.4c0-6.1,0.2-12.2,0.1-18.2c-0.2-9.1-0.3-18.2-0.8-27.3
		c-0.5-8.1-1.9-16.2-4.3-24c-8.6-27.5-24.5-49.7-48.1-66.3c-26.8-18.9-56.6-26-89.1-21.8c-14.7,1.9-28.7,6.4-41.7,13.5
		c-40.1,22.1-62.6,56-66.7,101.7c-1.5,16.4,0.6,32.6,5.9,48.2c12.2,35.6,35.8,60.7,69.8,76.2c13.5,6.2,27.8,9.5,42.7,10
		c8.8,0.3,17.6,0.4,26.4,0.4c33.4,0,66.9,0,100.3,0C1393.9,1287.7,1395.5,1287.6,1396.9,1287.6z M852.7,1287.7
		c0.1-1.8,0.3-3.1,0.3-4.3c0-39.8,0.1-79.7,0-119.5c0-12.2-1.1-24.3-4.4-36.1c-7.6-26.3-22.2-48.1-43.9-64.8
		c-27.7-21.4-59.1-29.7-93.7-25.3c-17.2,2.2-33.3,7.9-48,17c-39.7,24.7-59.8,60.6-60.9,107.2c-0.4,16,2.8,31.5,8.9,46.3
		c13.1,32,35.8,54.8,67.2,69.1c13.5,6.1,27.8,9.6,42.7,10c8.8,0.2,17.6,0.4,26.4,0.4c33.4,0,66.9,0,100.3,0
		C848.9,1287.7,850.5,1287.7,852.7,1287.7z M363.8,1037.6c4,5.8,7.4,10.8,10.8,15.7c3.5,5,6.9,10,10.4,15
		c3.5,5.1,7.1,10.3,10.6,15.4c3.5,5,6.9,10,10.4,15c3.5,5,6.9,10,10.4,15c3.5,5,6.9,10,10.4,15c3.5,5.1,7.1,10.3,10.6,15.4
		c3.4,5,7,9.9,10.4,15.2c-3.5,5-7.1,9.7-10.6,14.5c-3.5,4.8-7,9.5-10.5,14.3c-3.4,4.6-6.8,9.3-10.2,13.9c-3.5,4.8-7,9.5-10.5,14.3
		c-3.5,4.8-7,9.5-10.5,14.3c-3.5,4.8-7,9.5-10.5,14.3c-3.4,4.6-6.8,9.3-10.2,13.9c-3.5,4.8-7.1,9.5-10.5,14.3
		c-3.4,4.7-7.2,9.2-10.4,14.7c1.2,0.2,1.9,0.5,2.7,0.5c10.9,0.6,53.9,0.2,57.7-0.5c1-1.3,2.1-2.7,3.1-4.1c21-28,42-56,63-84.1
		c0.8-1,1.5-2.1,2.3-3c0.6-0.7,1.4-1.1,2.4-1.9c1.2,1.4,2.2,2.6,3.2,3.9c4.5,6,9,12,13.5,18c17.2,22.9,34.4,45.8,51.5,68.7
		c1.4,1.9,2.9,3.1,5.5,3.1c17.9-0.1,35.8,0,53.7-0.1c0.9,0,1.8-0.2,2.9-0.4c-0.5-1.9-1.7-3.1-2.6-4.3
		c-14.4-19.6-28.8-39.2-43.2-58.7c-15.1-20.5-30.2-41-45.2-61.4c-1-1.4-2.4-2.6-2.6-4.7c0.8-1.2,1.7-2.6,2.6-3.9
		c15.7-22.8,31.5-45.5,47.2-68.3c10.4-15,20.7-30,31.1-45c0.8-1.1,2-2.1,1.8-3.7c-4.6-0.6-56.2-0.5-60,0.1c-1,1.4-2,2.8-3,4.2
		c-17.6,25.6-35.2,51.1-52.7,76.7c-0.9,1.3-1.8,2.6-2.8,3.9c-0.6,0.8-1.9,0.7-2.6,0c-0.9-1.1-1.8-2.3-2.6-3.5
		c-17.7-25.7-35.3-51.4-53-77.1c-1.1-1.6-2.2-3.1-3.2-4.5C404.3,1037.6,384.5,1037.6,363.8,1037.6z M287.1,1037.1
		c-0.1,0.4-0.4,0.8-0.4,1.3c0,82.5,0,165,0,247.5c0,0.4,0.3,0.9,0.4,1.3c4.2,0.8,43.9,0.7,47.8,0c0.1-0.1,0.3-0.2,0.3-0.4
		c0.1-0.3,0.2-0.6,0.2-0.9c0-81.1,0-162.1,0.1-243.2c0-1.6-0.1-3.2-0.1-4.8c0-0.2,0-0.3-0.1-0.5c-0.1-0.1-0.2-0.2-0.3-0.3
		C330.7,1036.4,291.2,1036.4,287.1,1037.1z"/>
	<path style="fill:#303030;" d="M794.5,292.4c0.7,0.4,1.3,0.9,2,1.2c151.5,57.9,303,115.8,454.4,173.7c3.3,1.3,6.6,2.5,9.8,3.8
		c0.9,0.3,1.7,0.9,2.8,1.4c-46,117.2-91.9,234.3-137.9,351.7c-35.4-14.2-70.4-28.2-105.3-42.2c-0.8-4.2-0.3-8.2-0.4-12.2
		c-0.1-3.8,0-7.7,0-11.5c0-4,0-8,0-12c0-3.8-0.1-7.7,0-11.5c0.1-4-0.4-7.9,0.4-11.9c1.9-0.5,3.2,0.6,4.7,1.2
		c15.7,6.4,31.4,12.8,47,19.2c5.9,2.4,11.8,4.8,17.8,7.2c1,0.4,2.1,0.7,3,1c1.6-1.2,1.8-2.8,2.4-4.3c7.3-18.4,14.5-36.9,21.8-55.3
		c23.9-60.9,47.7-121.7,71.6-182.6c0.6-1.6,1.6-3.1,1.5-5c-0.4-0.3-0.7-0.7-1.2-0.8c-120.3-46-240.6-92-360.8-138
		c-0.4-0.2-0.9-0.1-1.7-0.2c-2.5,5.5-3.9,11.4-5.8,17.1c-2,5.7-3.7,11.6-5.6,17.3c-1.9,5.9-3.8,11.9-5.7,17.8
		c-1.8,5.8-3.7,11.6-5.5,17.4c-1.9,5.8-3.7,11.6-5.6,17.3c-1.9,5.8-3.8,11.5-5.6,17.2c-4.5,0.6-56.2,0.6-60.3-0.1
		c0.5-1.5,0.9-3.1,1.4-4.5c15-42.8,30-85.7,45-128.5c4.8-13.7,9.6-27.5,14.4-41.2c0.3-0.9,0.4-1.8,0.6-2.8
		C793.8,292.4,794.2,292.4,794.5,292.4z"/>
	<path style="fill:#303030;" d="M11.1,1154.5c1.7-1.3,1.7-3.3,1.9-5.2c0.9-11.1,3.7-21.7,7.8-32c14.5-36.6,46.5-65.3,84.2-75.3
		c13.9-3.7,28-4.7,42.3-3.9c46,2.6,92.1,35.6,109.1,83c3.1,8.6,5.1,17.5,6,26.6c0.6,5.6,1,11.2,1,16.7c-0.1,19.7-5,38.3-14.1,55.7
		c-11.1,21.4-26.7,38.6-47.4,51c-12.4,7.4-25.7,13-40.1,15.3c-8.9,1.4-17.8,2.3-26.7,2.3c-22.4,0-44.8,0-67.2,0c-1.7,0-3.5,0-5.4,0
		c-0.2,1.1-0.5,2-0.6,2.9c-0.1,1.4,0,2.9,0,4.3c0,29.1,0,58.2,0,87.3c0,1.9,0.2,3.8-0.4,6c-1.5,0.1-2.9,0.3-4.3,0.3
		c-15.4,0-30.7,0-46.1,0C11.1,1311.3,11.1,1232.9,11.1,1154.5z M62,1239.1c2.4,0,4.1,0,5.9,0c23.5,0,47-0.1,70.6,0
		c12.3,0.1,23.8-2.7,34.5-8.7c26.4-14.7,40.2-37.2,40.8-67.5c0.3-15.2-4.3-29.1-12.7-41.6c-15.3-22.7-36.9-33.8-64.1-34.1
		c-10.5-0.1-20.6,2.4-30.2,6.7c-20.7,9.4-34.6,24.9-41.5,46.5c-2.5,8-3.3,16.3-3.4,24.6c0,7,0.1,14.1,0.1,21.1
		c0,15.7-0.1,31.4-0.1,47C61.8,1235.1,62,1236.8,62,1239.1z"/>
	<path style="fill:#303030;" d="M974.6,514.8c0.2,0.8,0.4,1.4,0.4,2c0,102.5,0,205.1,0,307.8c-1.1,0.2-2,0.5-2.9,0.5
		c-1.4,0.1-2.9,0-4.3,0c-180.1,0-360.2,0-540.4,0c-2.1,0-4.1,0-6.4,0c-0.2-1.1-0.5-1.9-0.6-2.8c-0.1-1.1,0-2.2,0-3.4
		c0-99.3,0-198.7,0-298c0-1.9,0.1-3.8,0.1-5.3c1.3-1.5,2.7-1.1,3.9-1.2c7.8,0,15.7,0,23.5-0.1c2.5,0,5.1-0.2,7.6-0.7
		c6.5-1.4,11.7-5,15.7-10.3c3-4,5.1-8.5,6.4-13.3c1.2-4.3,2-8.7,2.2-13.2c0.1-2.1,0.3-4.1,0.4-6.4c1.3-0.1,2.4-0.3,3.4-0.3
		c33.1,0,66.2,0,99.3,0c1.1,0,2.2,0.1,3.3,0.2c0.2,0.7,0.5,1.1,0.5,1.5c0.5,6.7,2.8,12.8,6.8,18.2c2.7,3.6,5.5,7.1,8.8,10.1
		c4.8,4.4,10.1,8.4,15.1,12.6c1.6,1.3,3.3,1.8,5.3,1.7c1.4-0.1,2.9,0,4.3,0c113.7,0,227.5,0,341.2,0
		C970.4,514.4,972.5,514.2,974.6,514.8z M775.1,551.8c-1.3,0-2.6-0.1-3.8,0c-2.1,0.1-4.1,0.3-6.2,0.5c-18.7,1.3-36,6.9-52,16.6
		c-42.3,25.5-62.1,74.9-49.4,122.6c12.1,45.5,54.1,83.5,109.6,84.7c11.6,0.2,23-1.4,34.1-4.7c54.4-16,88-68.1,81.6-121.6
		c-2.4-20.4-9.7-38.7-22.6-54.6C842.9,566.3,811.9,552.8,775.1,551.8z M487.4,559.3c-0.7,3.8-1,18.3-0.5,39.8c0,1.2,0.2,2.5,0.3,3.6
		c1.9,1.1,3.7,0.7,5.4,0.7c29.9,0,59.8,0,89.7,0c1,0,1.9,0.1,2.9-0.1c0.9-0.1,2-0.3,2.7-0.9c3.4-2.6,7-5,9.9-8
		c0.6-8.3,0.4-31.6-0.3-35.2c-1.8-0.8-3.7-0.5-5.6-0.5c-23.8,0-47.7,0-71.5,0c-9.3,0-18.6,0-27.8,0
		C490.7,558.7,488.9,558.3,487.4,559.3z"/>
	<path style="fill:#303030;" d="M877.6,937.6c1.2-0.1,2.2-0.4,3.3-0.4c15.6-0.5,41-0.2,45.3,0.5c0.2,0.8,0.4,1.7,0.5,2.6
		c0.1,1.4,0,2.9,0,4.3c0,29,0,57.9,0,86.9c0,1.9,0.1,3.8,0.2,5.8c2.1,0.7,4.1,0.5,5.9,0.5c23.2,0,46.4,0.1,69.6,0
		c35.2-0.2,64.8,12.9,89.5,37.4c16.7,16.6,27.7,36.5,33.1,59.6c13,55.6-15.1,111.2-58.4,136.8c-13.9,8.2-28.8,13.8-44.8,16.1
		c-43,6.1-88.1-10.5-115.5-43.9c-16.1-19.6-25.4-41.9-28.4-67c-0.8-6.7-1-13.4-0.9-20.1c0-3.2,0.1-6.4,0.1-9.6c0-67.7,0-135.3,0-203
		C877.1,941.9,876.8,939.8,877.6,937.6z M927.4,1087.6c-1,2.1-0.7,3.9-0.7,5.6c0,4.6,0,9.3,0,13.9c0.1,20.2,0.1,40.3,0.3,60.5
		c0,3.8,0.5,7.7,1.2,11.4c7.2,36.4,44,67.8,90.1,58.7c26.7-5.3,49.4-26.6,57.1-52.8c1.5-4.9,2.1-10,2.7-15.1
		c0.8-7.1,0.5-14.1-0.9-21c-3.1-15.3-10.3-28.5-21.3-39.5c-11.2-11.2-24.4-18.5-40.2-20.7c-5.4-0.7-10.8-1.2-16.3-1.2
		c-23.2-0.1-46.4-0.1-69.6,0C929.2,1087.4,928.4,1087.5,927.4,1087.6z"/>
	<path style="fill:#303030;" d="M1421.2,1037.8c4.3-0.7,44.5-0.6,48.8,0c0.1,1,0.3,2.1,0.3,3.1c0,21.6-0.1,43.2,0,64.8
		c0,19.8,0.2,39.7,0.3,59.5c0.2,35.2,27.2,64.2,57.9,71.4c45.4,10.6,82.4-20,91.1-53.8c1.7-6.4,2.2-12.9,2.3-19.5
		c0.3-10.2,0.2-20.5,0.2-30.7c0-29.6,0-59.2,0-88.8c0-1.9,0-3.8,0-5.9c1-0.2,1.7-0.6,2.5-0.6c14.7,0,29.4,0,44.1,0
		c0.6,0,1.2,0.2,1.9,0.3c0.2,0.7,0.4,1.3,0.4,1.9c0.1,1.6,0.1,3.2,0.1,4.8c0,65.9,0,131.8,0,197.7c0,9.8-0.2,19.5-0.1,29.3
		c0.1,9.2-1.5,18.1-4,26.9c-11.4,39.4-43.7,72.6-82.7,85c-10.4,3.3-21.1,5.2-32.1,5.3c-8.8,0.1-17.6,0.1-26.4,0.1
		c-1.3,0-2.5-0.1-4-0.2c-0.2-0.9-0.5-1.6-0.5-2.4c0-14.9,0-29.8,0-44.6c0-0.5,0.1-0.9,0.2-1.7c0.8-0.2,1.7-0.6,2.6-0.6
		c2.2-0.1,4.5,0,6.7,0.1c9.1,0.2,18.2-0.1,27.3-1.1c14-1.6,26.1-7.5,36.7-16.4c15.9-13.4,24.6-30.7,27-51.3c0.2-2.2,0.5-4.4-0.1-6.6
		c-1.8-0.4-2.7,1-3.8,1.8c-10.2,7.4-21.3,12.9-33.3,16.7c-13.7,4.3-27.7,6.2-42.1,5.7c-28.2-1-53.5-10-75.5-28
		c-24.1-19.8-38.6-45.2-44.5-75.7c-1.6-8-2.2-16.2-2.1-24.3c0.1-10.2,0.2-20.5,0.2-30.7c0-28.6,0-57.3,0-85.9
		C1420.7,1041.5,1420.4,1039.5,1421.2,1037.8z"/>
	<path style="fill:#303030;" d="M1396.9,1287.6c-1.4,0-3,0.1-4.6,0.1c-33.4,0-66.9,0-100.3,0c-8.8,0-17.6-0.1-26.4-0.4
		c-14.9-0.4-29.2-3.8-42.7-10c-34-15.5-57.7-40.7-69.8-76.2c-5.4-15.6-7.4-31.8-5.9-48.2c4.1-45.7,26.6-79.6,66.7-101.7
		c13-7.2,27-11.6,41.7-13.5c32.5-4.2,62.3,2.9,89.1,21.8c23.6,16.6,39.5,38.8,48.1,66.3c2.4,7.8,3.8,15.9,4.3,24
		c0.5,9.1,0.7,18.2,0.8,27.3c0.1,6.1-0.1,12.2-0.1,18.2c0,28.8,0,57.6,0,86.4C1397.8,1283.6,1398.3,1285.6,1396.9,1287.6z
		 M1348.1,1237.8c0.1-2.2,0.2-3.7,0.2-5.3c0-5,0-9.9,0-14.9c0-18.2,0-36.5-0.2-54.7c-0.1-6.7-0.4-13.4-2.1-20
		c-8-32.2-42.3-64.3-88.2-55.4c-43.8,8.6-73.1,53.1-57.1,99.2c7.5,21.7,21.9,37.2,43.5,45.8c9.2,3.7,18.8,5.2,28.6,5.4
		c9.8,0.2,19.5,0,29.3,0c13.8,0,27.5,0.1,41.3,0.1C1344.7,1238,1346.1,1237.9,1348.1,1237.8z"/>
	<path style="fill:#303030;" d="M852.7,1287.7c-2.1,0-3.7,0-5.3,0c-33.4,0-66.9,0-100.3,0c-8.8,0-17.6-0.1-26.4-0.4
		c-14.9-0.4-29.1-3.8-42.7-10c-31.4-14.2-54.1-37.1-67.2-69.1c-6.1-14.8-9.2-30.4-8.9-46.3c1.1-46.6,21.2-82.5,60.9-107.2
		c14.7-9.2,30.8-14.8,48-17c34.7-4.5,66,3.9,93.7,25.3c21.7,16.8,36.3,38.5,43.9,64.8c3.4,11.8,4.4,23.9,4.4,36.1
		c0.1,39.8,0,79.7,0,119.5C853,1284.6,852.8,1285.8,852.7,1287.7z M803.3,1237.8c0-2.1,0-3.7,0-5.3c0-3.5,0-7,0-10.6
		c-0.1-21.6-0.1-43.2-0.2-64.8c0-3.8-0.6-7.7-1.3-11.4c-6.9-33.8-42.2-67.3-88.8-58.1c-46.6,9.2-74.6,57.8-55.4,103.7
		c8.2,19.6,22.2,33.7,42.2,41.5c9.1,3.5,18.5,5,28.2,5.2c9.9,0.2,19.8,0,29.8,0c13.8,0,27.5,0.1,41.3,0.1
		C800.2,1238,801.4,1237.9,803.3,1237.8z"/>
	<path style="fill:#303030;" d="M363.8,1037.6c20.7,0,40.5,0,60.6,0c1,1.4,2.2,3,3.2,4.5c17.7,25.7,35.3,51.4,53,77.1
		c0.8,1.2,1.7,2.4,2.6,3.5c0.6,0.8,1.9,0.8,2.6,0c1-1.2,1.9-2.5,2.8-3.9c17.6-25.6,35.2-51.1,52.7-76.7c1-1.4,2-2.9,3-4.2
		c3.8-0.6,55.4-0.7,60-0.1c0.2,1.6-1,2.6-1.8,3.7c-10.3,15-20.7,30-31.1,45c-15.7,22.8-31.5,45.5-47.2,68.3
		c-0.9,1.3-1.8,2.6-2.6,3.9c0.2,2.1,1.6,3.3,2.6,4.7c15.1,20.5,30.1,41,45.2,61.4c14.4,19.6,28.8,39.2,43.2,58.7
		c0.9,1.2,2.1,2.4,2.6,4.3c-1.1,0.2-2,0.4-2.9,0.4c-17.9,0-35.8,0-53.7,0.1c-2.6,0-4-1.1-5.5-3.1c-17.1-22.9-34.3-45.8-51.5-68.7
		c-4.5-6-9-12-13.5-18c-0.9-1.3-2-2.4-3.2-3.9c-1,0.8-1.8,1.2-2.4,1.9c-0.9,0.9-1.6,2-2.3,3c-21,28-42,56-63,84.1
		c-1.1,1.4-2.1,2.8-3.1,4.1c-3.8,0.7-46.8,1.1-57.7,0.5c-0.7,0-1.5-0.3-2.7-0.5c3.2-5.5,7-10,10.4-14.7c3.4-4.8,7-9.5,10.5-14.3
		c3.4-4.6,6.8-9.3,10.2-13.9c3.5-4.8,7-9.5,10.5-14.3c3.5-4.8,7-9.5,10.5-14.3c3.5-4.8,7-9.5,10.5-14.3c3.4-4.6,6.8-9.3,10.2-13.9
		c3.5-4.8,7-9.5,10.5-14.3c3.5-4.8,7-9.5,10.6-14.5c-3.4-5.3-6.9-10.2-10.4-15.2c-3.5-5.1-7.1-10.3-10.6-15.4c-3.5-5-6.9-10-10.4-15
		c-3.5-5-6.9-10-10.4-15c-3.5-5-6.9-10-10.4-15c-3.5-5.1-7.1-10.3-10.6-15.4c-3.5-5-6.9-10-10.4-15
		C371.2,1048.3,367.7,1043.4,363.8,1037.6z"/>
	<path style="fill:#303030;" d="M287.1,1037.1c4.1-0.7,43.6-0.7,47.9,0c0.1,0.1,0.2,0.2,0.3,0.3c0.1,0.1,0.1,0.3,0.1,0.5
		c0.1,1.6,0.1,3.2,0.1,4.8c0,81.1,0,162.1-0.1,243.2c0,0.3-0.1,0.6-0.2,0.9c0,0.1-0.2,0.2-0.3,0.4c-3.9,0.7-43.6,0.8-47.8,0
		c-0.1-0.4-0.4-0.8-0.4-1.3c0-82.5,0-165,0-247.5C286.7,1037.9,287,1037.5,287.1,1037.1z"/>
	<path style="fill:#FFFFFF;" d="M62,1239.1c-0.1-2.3-0.2-4.1-0.2-5.8c0-15.7,0.1-31.4,0.1-47c0-7-0.1-14.1-0.1-21.1
		c0.1-8.4,0.8-16.7,3.4-24.6c6.9-21.6,20.8-37.1,41.5-46.5c9.6-4.3,19.7-6.9,30.2-6.7c27.2,0.3,48.8,11.4,64.1,34.1
		c8.4,12.5,13,26.4,12.7,41.6c-0.6,30.3-14.4,52.8-40.8,67.5c-10.7,5.9-22.2,8.7-34.5,8.7c-23.5-0.1-47,0-70.6,0
		C66.1,1239.1,64.4,1239.1,62,1239.1z"/>
	<path style="fill:#FFFFFF;" d="M775.1,551.8c36.8,1,67.8,14.5,91.2,43.5c12.9,15.9,20.2,34.3,22.6,54.6
		c6.4,53.5-27.3,105.5-81.6,121.6c-11.1,3.3-22.5,4.9-34.1,4.7c-55.5-1.1-97.5-39.1-109.6-84.7c-12.6-47.7,7.2-97.1,49.4-122.6
		c16-9.7,33.3-15.3,52-16.6c2.1-0.1,4.1-0.4,6.2-0.5C772.5,551.8,773.8,551.8,775.1,551.8z M775.3,723.4c5.1,0.2,10.4-0.6,15.7-2.1
		c35.5-9.8,54.9-47.7,40.6-82c-11.5-27.5-41.7-43.2-71.8-35.8c-33.9,8.4-54.7,43.2-43.9,77.4C724.5,707.8,749.9,723.9,775.3,723.4z"
		/>
	<path style="fill:#FFFFFF;" d="M487.4,559.3c1.6-1,3.4-0.6,5.1-0.6c9.3,0,18.6,0,27.8,0c23.8,0,47.7,0,71.5,0
		c1.9,0,3.8-0.3,5.6,0.5c0.7,3.6,0.9,26.9,0.3,35.2c-2.9,3-6.5,5.4-9.9,8c-0.7,0.5-1.7,0.7-2.7,0.9c-0.9,0.1-1.9,0.1-2.9,0.1
		c-29.9,0-59.8,0-89.7,0c-1.7,0-3.5,0.4-5.4-0.7c-0.1-1.1-0.3-2.3-0.3-3.6C486.4,577.7,486.6,563.2,487.4,559.3z"/>
	<path style="fill:#FFFFFF;" d="M927.4,1087.6c1-0.1,1.7-0.2,2.5-0.2c23.2,0,46.4-0.1,69.6,0c5.4,0,10.9,0.5,16.3,1.2
		c15.8,2.2,29,9.5,40.2,20.7c11,11,18.2,24.2,21.3,39.5c1.4,6.9,1.8,13.9,0.9,21c-0.6,5.1-1.3,10.2-2.7,15.1
		c-7.7,26.1-30.4,47.5-57.1,52.8c-46.1,9.1-82.9-22.3-90.1-58.7c-0.7-3.7-1.2-7.6-1.2-11.4c-0.2-20.2-0.2-40.3-0.3-60.5
		c0-4.6-0.1-9.3,0-13.9C926.8,1091.5,926.4,1089.7,927.4,1087.6z"/>
	<path style="fill:#FFFFFF;" d="M1348.1,1237.8c-2,0.1-3.4,0.2-4.8,0.2c-13.8,0-27.5-0.1-41.3-0.1c-9.8,0-19.5,0.2-29.3,0
		c-9.8-0.2-19.4-1.7-28.6-5.4c-21.6-8.6-36-24.2-43.5-45.8c-15.9-46.1,13.4-90.7,57.1-99.2c45.9-9,80.1,23.2,88.2,55.4
		c1.7,6.6,2,13.3,2.1,20c0.2,18.2,0.1,36.5,0.2,54.7c0,5,0,9.9,0,14.9C1348.3,1234.1,1348.2,1235.6,1348.1,1237.8z"/>
	<path style="fill:#FFFFFF;" d="M803.3,1237.8c-1.9,0.1-3.1,0.3-4.4,0.3c-13.8,0-27.5-0.1-41.3-0.1c-9.9,0-19.8,0.2-29.8,0
		c-9.6-0.2-19.1-1.7-28.2-5.2c-20.1-7.8-34-21.9-42.2-41.5c-19.2-45.9,8.8-94.5,55.4-103.7c46.6-9.2,81.9,24.3,88.8,58.1
		c0.8,3.7,1.3,7.6,1.3,11.4c0.2,21.6,0.2,43.2,0.2,64.8c0,3.5,0,7,0,10.6C803.3,1234,803.3,1235.6,803.3,1237.8z"/>
	<path style="fill:#303030;" d="M775.3,723.4c-25.4,0.5-50.8-15.6-59.3-42.4c-10.9-34.2,9.9-69,43.9-77.4
		c30.1-7.4,60.3,8.2,71.8,35.8c14.3,34.3-5.1,72.2-40.6,82C785.7,722.8,780.4,723.7,775.3,723.4z"/>
</g>
</svg>
