<?xml version="1.0" encoding="utf-8"?>
<!-- Generator: Adobe Illustrator 20.1.0, SVG Export Plug-In . SVG Version: 6.00 Build 0)  -->
<svg version="1.1" id="Layer_1" xmlns="http://www.w3.org/2000/svg" xmlns:xlink="http://www.w3.org/1999/xlink" x="0px" y="0px"
	 viewBox="0 0 287.6 204.8" style="enable-background:new 0 0 287.6 204.8;" xml:space="preserve">
<style type="text/css">
	.st0{fill:#303030;}
</style>
<path class="st0" d="M31.9,137.7h10.3v32.9c0,13-9.2,21.2-21.1,21.2S0,183.6,0,170.6v-32.9h10.3v33c0,6.9,4.7,11,10.8,11
	s10.8-4.1,10.8-11L31.9,137.7z M68.6,152.9c-4,0-8.3,1.7-10.6,5.5v-4.6h-9.6v36.7h9.9v-21.1c0-4.3,2.5-7.6,6.9-7.6
	c4.8,0,6.8,3.2,6.8,7.3v21.4h9.9v-23.1C81.9,159.4,77.7,152.9,68.6,152.9z M105,168.4l-5.4-1.1c-2.1-0.4-3.4-1.5-3.4-3.3
	c0-2.1,1.9-3.6,4.5-3.6c3.7,0,5.1,1.9,5.5,4.1h8.6c-0.1-5-4.1-11.6-13.9-11.6c-7.9,0-13.7,5.4-13.7,12c0,5.1,3.2,9.4,10.3,11
	l5.1,1.1c2.8,0.6,4,1.9,4,3.6c0,1.9-1.8,3.7-5.1,3.7c-4,0-6.1-2.3-6.6-4.9h-8.8c0.5,5.5,4.5,12.5,15.5,12.5
	c9.6,0,14.5-6.1,14.5-12.1C115.9,174.3,112.3,169.9,105,168.4L105,168.4z M158.1,172.2c0,11.1-6.9,19.3-17.3,19.3
	c-5.1,0-8.8-2-10.6-4.5v17.8h-9.9v-50.9h9.6v4.6c1.6-2.8,5.8-5.4,11.3-5.4C151.9,153.1,158.1,161.3,158.1,172.2L158.1,172.2z
	 M148.3,172.2c0-6.5-4-10.3-9.1-10.3s-9.2,3.8-9.2,10.3s4.1,10.4,9.2,10.4S148.3,178.8,148.3,172.2L148.3,172.2z M205.4,153.9h9.6
	v36.7h-9.9v-4.5c-1.7,2.9-5.5,5.4-10.6,5.4c-10.4,0-17.3-8.2-17.3-19.3c0-10.9,6.2-19.1,16.9-19.1c5.5,0,9.5,2.6,11.3,5.4V153.9z
	 M205.3,172.2c0-6.5-4.1-10.3-9.2-10.3s-9.1,3.8-9.1,10.3s4,10.4,9.1,10.4S205.3,178.7,205.3,172.2L205.3,172.2z M162.7,190.6h9.9
	v-52.9h-9.9V190.6z M274,152.9c-3.5,0-7.5,1.2-9.9,4v-19.2h-9.9v52.9h9.8V169c0.2-4,2.7-7.2,6.9-7.2c4.8,0,6.8,3.2,6.8,7.3v21.4h9.9
	v-23.1C287.6,159.4,283.3,152.9,274,152.9L274,152.9z M238.7,168.4l-5.5-1.1c-2.1-0.4-3.4-1.5-3.4-3.3c0-2.1,1.9-3.6,4.5-3.6
	c3.7,0,5.1,1.9,5.5,4.1h8.6c-0.1-5-4.1-11.6-13.9-11.6c-7.9,0-13.7,5.4-13.7,12c0,5.1,3.2,9.4,10.3,11l5.1,1.1c2.8,0.6,4,1.9,4,3.6
	c0,1.9-1.8,3.7-5.1,3.7c-4,0-6.1-2.3-6.6-4.9h-8.9c0.5,5.5,4.5,12.5,15.5,12.5c9.6,0,14.5-6.1,14.5-12.1
	C249.6,174.3,245.9,169.9,238.7,168.4L238.7,168.4z M205.8,52.2h-37.1V85h-43.6V52.2H87.9v65.7h117.9V52.2z M168.7,0h-43.6v32.9
	h43.6V0z"/>
</svg>
